<?xml version="1.0" encoding="UTF-8" standalone="no"?>
<!-- Created with Inkscape (http://www.inkscape.org/) -->

<svg
   width="1440"
   height="550"
   viewBox="0 0 381.00001 145.52083"
   version="1.1"
   id="svg5"
   inkscape:version="1.1 (c68e22c387, 2021-05-23)"
   sodipodi:docname="blob-bg.svg"
   xmlns:inkscape="http://www.inkscape.org/namespaces/inkscape"
   xmlns:sodipodi="http://sodipodi.sourceforge.net/DTD/sodipodi-0.dtd"
   xmlns="http://www.w3.org/2000/svg"
   xmlns:svg="http://www.w3.org/2000/svg">
  <sodipodi:namedview
     id="namedview7"
     pagecolor="#505050"
     bordercolor="#ffffff"
     borderopacity="1"
     inkscape:pageshadow="0"
     inkscape:pageopacity="0"
     inkscape:pagecheckerboard="1"
     inkscape:document-units="mm"
     showgrid="false"
     inkscape:zoom="0.49887767"
     inkscape:cx="811.82227"
     inkscape:cy="239.53768"
     inkscape:window-width="1366"
     inkscape:window-height="745"
     inkscape:window-x="-8"
     inkscape:window-y="-8"
     inkscape:window-maximized="1"
     inkscape:current-layer="layer1"
     units="px" />
  <defs
     id="defs2" />
  <g
     inkscape:label="Layer 1"
     inkscape:groupmode="layer"
     id="layer1">
    <path
       fill="#0f62fe"
       d="m 444.31033,-29.25692 c 10.67344,27.80703 4.21319,56.17581 -9.69031,76.68001 -13.90354,20.50414 -35.10987,33.143696 -63.61915,37.356886 -28.36878,4.07279 -63.75955,-0.42145 -76.68001,-20.504136 -12.92041,-19.94246 -3.37055,-55.33323 14.32483,-87.21301 17.83584,-31.87978 43.67676,-60.24856 70.50071,-60.81032 26.82395,-0.421293 54.63099,26.68353 65.16393,54.49057 z"
       id="path848"
       style="fill:#37b8f6;fill-opacity:0.53720933;stroke-width:1.40439" />
    <path
       fill="#0f62fe"
       d="M -87.752703,107.69554 C -103.56436,90.690974 -93.994133,73.342893 -73.397443,60.804157 -52.800703,48.265458 -21.38559,40.536116 20.848126,37.959666 62.8737,35.469072 115.30169,38.217391 134.44209,50.498358 153.58242,62.693577 139.43524,84.335752 113.22125,103.8309 86.799184,123.32603 48.518372,140.67411 8.7813187,141.01764 -30.955746,141.27527 -72.149163,124.70011 -87.752703,107.69554 Z"
       id="path848-0"
       style="fill:#37b8f6;fill-opacity:0.537209;stroke-width:1.33669" />
    <path
       fill="#ff0066"
       d="m 22.774815,11.088732 c 0.998196,3.573243 0.05787,7.247752 -2.415916,9.142872 -2.488247,1.880651 -6.538889,1.981918 -9.562401,-0.04341 C 7.7874539,18.162879 5.7766009,14.010975 6.8037259,10.39433 7.8308509,6.7921581 11.881493,3.7107781 15.382399,3.8988431 c 3.486443,0.188065 6.408693,3.631107 7.392416,7.1898819 z"
       id="path4007"
       style="fill:#37b8f6;fill-opacity:0.537209;stroke-width:0.144665" />
    <path
       fill="#ff0066"
       d="m 199.74464,38.067955 c 0.69443,2.485876 0.0403,5.042202 -1.68073,6.360622 -1.73106,1.308354 -4.54905,1.378805 -6.65248,-0.0302 -2.09337,-1.408995 -3.49232,-4.297441 -2.77775,-6.813512 0.71456,-2.506002 3.53257,-4.649694 5.96812,-4.518858 2.42549,0.130835 4.45847,2.526132 5.14284,5.001943 z"
       id="path4007-8"
       style="fill:#37b8f6;fill-opacity:0.537209;stroke-width:0.100643" />
    <path
       fill="#ff0066"
       d="m 184.5953,100.27129 c 0.60513,2.1662 0.0351,4.39378 -1.46459,5.54265 -1.50844,1.1401 -3.96404,1.20149 -5.79697,-0.0263 -1.82416,-1.2278 -3.0432,-3.74479 -2.42053,-5.937295 0.62267,-2.18373 3.07828,-4.051742 5.20062,-3.937732 2.11357,0.11401 3.88511,2.201271 4.48147,4.358697 z"
       id="path4007-8-8"
       style="fill:#37b8f6;fill-opacity:0.537209;stroke-width:0.0876999" />
    <path
       fill="#ff0066"
       d="m 215.35601,132.62308 c 0.60513,2.16619 0.0351,4.39377 -1.46459,5.54264 -1.50844,1.1401 -3.96404,1.20149 -5.79697,-0.0263 -1.82416,-1.2278 -3.0432,-3.74479 -2.42053,-5.93729 0.62267,-2.18373 3.07828,-4.05174 5.20062,-3.93773 2.11357,0.11401 3.88511,2.20127 4.48147,4.35869 z"
       id="path4007-8-8-0"
       style="fill:#37b8f6;fill-opacity:0.537209;stroke-width:0.0876999" />
    <path
       fill="#ff0066"
       d="m 261.52386,98.364187 c 1.88516,6.748363 0.10935,13.687943 -4.56264,17.267013 -4.69924,3.55176 -12.34917,3.74301 -18.0593,-0.0819 -5.6828,-3.82496 -9.48048,-11.66614 -7.54067,-18.496443 1.9398,-6.802969 9.58976,-12.622412 16.20149,-12.267237 6.5844,0.355176 12.10328,6.857648 13.96112,13.578657 z"
       id="path4007-8-8-1-4"
       style="fill:#37b8f6;fill-opacity:0.537209;stroke-width:0.273211" />
    <path
       fill="#ff0066"
       d="m 231.72767,-0.19907 c 1.88516,6.74836 0.10935,13.68794 -4.56264,17.26701 -4.69924,3.55176 -12.34917,3.74301 -18.0593,-0.0819 -5.6828,-3.82496 -9.48048,-11.66614 -7.54067,-18.49644 1.9398,-6.80297 9.58976,-12.622413 16.20149,-12.267238 6.5844,0.355176 12.10328,6.857648 13.96112,13.578658 z"
       id="path4007-8-8-1-4-4"
       style="fill:#37b8f6;fill-opacity:0.53720933;stroke-width:0.273211" />
    <path
       fill="#ff0066"
       d="m 341.35474,98.291202 c 1.34508,4.815038 0.078,9.766518 -3.2555,12.320228 -3.35297,2.53422 -8.81128,2.67068 -12.88553,-0.0584 -4.05475,-2.72916 -6.76444,-8.32394 -5.38036,-13.197442 1.38407,-4.854001 6.84241,-9.006243 11.55996,-8.752825 4.69805,0.253426 8.63584,4.893017 9.96143,9.68854 z"
       id="path4007-8-8-1-4-2"
       style="fill:#37b8f6;fill-opacity:0.537209;stroke-width:0.194939" />
    <path
       fill="#ff0066"
       d="m 285.19544,10.519013 c 0.87305,3.125257 0.0506,6.33907 -2.11301,7.996587 -2.17629,1.644865 -5.71907,1.733435 -8.36351,-0.03794 -2.63178,-1.771392 -4.39054,-5.402747 -3.49219,-8.565949 0.89835,-3.150548 4.44115,-5.84561 7.50313,-5.681123 3.04933,0.164486 5.60519,3.175868 6.46558,6.288458 z"
       id="path4007-8-8-1-4-1-51"
       style="fill:#37b8f6;fill-opacity:0.53720933;stroke-width:0.126528" />
    <path
       fill="#ff0066"
       d="m 158.2883,16.828476 c 0.39676,1.420267 0.023,2.880777 -0.96025,3.634031 -0.98901,0.747506 -2.59902,0.787756 -3.80078,-0.01724 -1.19601,-0.805005 -1.99527,-2.455267 -1.58702,-3.892777 0.40825,-1.431759 2.01827,-2.656524 3.40978,-2.581773 1.38576,0.07475 2.54727,1.443266 2.93827,2.857775 z"
       id="path4007-8-8-1-4-1-5"
       style="fill:#37b8f6;fill-opacity:0.537209;stroke-width:0.0575004" />
    <path
       fill="#ff0066"
       d="m 146.87667,98.503477 c 0.39676,1.42026 0.023,2.880773 -0.96025,3.634033 -0.98901,0.7475 -2.59902,0.78775 -3.80078,-0.0172 -1.19601,-0.80501 -1.99527,-2.455273 -1.58702,-3.892783 0.40825,-1.431757 2.01827,-2.656522 3.40978,-2.581771 1.38576,0.07475 2.54727,1.443261 2.93827,2.857771 z"
       id="path4007-8-8-1-4-1-5-6"
       style="fill:#37b8f6;fill-opacity:0.537209;stroke-width:0.0575004" />
    <path
       fill="#ff0066"
       d="m 222.71774,64.560599 c 0.39676,1.42026 0.023,2.88077 -0.96025,3.63403 -0.98901,0.7475 -2.59902,0.78775 -3.80078,-0.0172 -1.19601,-0.80501 -1.99527,-2.45527 -1.58702,-3.89278 0.40825,-1.43176 2.01827,-2.65652 3.40978,-2.58177 1.38576,0.0747 2.54727,1.44326 2.93827,2.85777 z"
       id="path4007-8-8-1-4-1-5-6-9-5"
       style="fill:#37b8f6;fill-opacity:0.537209;stroke-width:0.0575004" />
    <path
       fill="#ff0066"
       d="m 257.82099,40.563164 c 0.39676,1.42026 0.023,2.88077 -0.96025,3.634029 -0.98901,0.747501 -2.59902,0.787751 -3.80078,-0.0172 -1.19601,-0.805009 -1.99527,-2.45527 -1.58702,-3.89278 0.40825,-1.43176 2.01827,-2.65652 3.40978,-2.58177 1.38576,0.0747 2.54727,1.44326 2.93827,2.85777 z"
       id="path4007-8-8-1-4-1-5-6-9-5-1-5"
       style="fill:#37b8f6;fill-opacity:0.537209;stroke-width:0.0575004" />
    <path
       fill="#ff0066"
       d="m 295.66481,99.831799 c 0.39676,1.420261 0.023,2.880771 -0.96025,3.634031 -0.98901,0.7475 -2.59902,0.78775 -3.80078,-0.0172 -1.19601,-0.80501 -1.99527,-2.45527 -1.58702,-3.892782 0.40825,-1.43176 2.01827,-2.65652 3.40978,-2.58177 1.38576,0.0747 2.54727,1.44326 2.93827,2.85777 z"
       id="path4007-8-8-1-4-1-5-6-9-5-1-5-9"
       style="fill:#37b8f6;fill-opacity:0.53720933;stroke-width:0.0575004" />
    <path
       fill="#ff0066"
       d="m 376.04112,134.0918 c 0.39676,1.42026 0.023,2.88077 -0.96025,3.63403 -0.98901,0.7475 -2.59902,0.78775 -3.80078,-0.0172 -1.19601,-0.80501 -1.99527,-2.45527 -1.58702,-3.89278 0.40825,-1.43176 2.01827,-2.65652 3.40978,-2.58177 1.38576,0.0747 2.54727,1.44326 2.93827,2.85777 z"
       id="path4007-8-8-1-4-1-5-6-9-5-1-5-9-2"
       style="fill:#37b8f6;fill-opacity:0.537209;stroke-width:0.0575004" />
    <path
       fill="#ff0066"
       d="m 296.20163,134.25818 c 0.39676,1.42026 0.023,2.88077 -0.96025,3.63403 -0.98901,0.7475 -2.59902,0.78775 -3.80078,-0.0172 -1.19601,-0.80501 -1.99527,-2.45527 -1.58702,-3.89278 0.40825,-1.43176 2.01827,-2.65652 3.40978,-2.58177 1.38576,0.0747 2.54727,1.44326 2.93827,2.85777 z"
       id="path4007-8-8-1-4-1-5-6-9-5-1-5-9-2-1"
       style="fill:#37b8f6;fill-opacity:0.537209;stroke-width:0.0575004" />
    <path
       fill="#ff0066"
       d="m 169.68203,58.726672 c 0.39676,1.42026 0.023,2.88077 -0.96025,3.634029 -0.98901,0.747501 -2.59902,0.787751 -3.80078,-0.0172 -1.19601,-0.805009 -1.99527,-2.45527 -1.58702,-3.89278 0.40825,-1.43176 2.01827,-2.65652 3.40978,-2.58177 1.38576,0.0747 2.54727,1.44326 2.93827,2.85777 z"
       id="path4007-8-8-1-4-1-5-6-9-5-1-9"
       style="fill:#37b8f6;fill-opacity:0.537209;stroke-width:0.0575004" />
    <path
       fill="#ff0066"
       d="m 73.157031,21.601669 c 0.39676,1.42026 0.023,2.88077 -0.96025,3.63403 -0.98901,0.7475 -2.59902,0.78775 -3.80078,-0.0172 -1.19601,-0.80501 -1.99527,-2.45527 -1.58702,-3.89278 0.40825,-1.43176 2.01827,-2.65652 3.40978,-2.58177 1.38576,0.0747 2.54727,1.44326 2.93827,2.85777 z"
       id="path4007-8-8-1-4-1-5-6-9-5-1-9-4-0-9-8-3"
       style="fill:#37b8f6;fill-opacity:0.537209;stroke-width:0.0575004" />
    <path
       fill="#ff0066"
       d="m 114.06338,21.854115 c 0.87305,3.125257 0.0506,6.33907 -2.11301,7.996587 -2.17629,1.644865 -5.71907,1.733435 -8.36351,-0.03794 -2.63178,-1.771392 -4.39054,-5.402747 -3.49219,-8.565949 0.89835,-3.150548 4.44115,-5.84561 7.50313,-5.681123 3.04933,0.164486 5.60519,3.175868 6.46558,6.288458 z"
       id="path4007-8-8-1-4-1-0"
       style="fill:#37b8f6;fill-opacity:0.537209;stroke-width:0.126528" />
    <path
       fill="#ff0066"
       d="m 117.70703,130.85526 c 0.39676,1.42027 0.023,2.88078 -0.96025,3.63403 -0.98901,0.74751 -2.59902,0.78776 -3.80078,-0.0172 -1.19601,-0.805 -1.99527,-2.45526 -1.58702,-3.89277 0.40825,-1.43176 2.01827,-2.65653 3.40978,-2.58178 1.38576,0.0747 2.54727,1.44327 2.93827,2.85778 z"
       id="path4007-8-8-1-4-1-5-0"
       style="fill:#37b8f6;fill-opacity:0.537209;stroke-width:0.0575004" />
  </g>
</svg>
