<svg width="401" height="171" viewBox="0 0 401 171" fill="none" xmlns="http://www.w3.org/2000/svg">
<path d="M205 100L201 104M201 100L205 104L201 100Z" stroke="#C8C8C8" stroke-opacity="0.47" stroke-width="2" stroke-linecap="round" stroke-linejoin="round"/>
<path d="M205 92H198L194 106L191 100H189" stroke="#C8C8C8" stroke-opacity="0.47" stroke-width="2" stroke-linecap="round" stroke-linejoin="round"/>
<path d="M229 25C228.47 25 227.961 25.2107 227.586 25.5858C227.211 25.9609 227 26.4696 227 27V33C227 33.5304 227.211 34.0391 227.586 34.4142C227.961 34.7893 228.47 35 229 35H231C231.53 35 232.039 34.7893 232.414 34.4142C232.789 34.0391 233 33.5304 233 33V32H231V33H229V27H231V28H233V27C233 26.4696 232.789 25.9609 232.414 25.5858C232.039 25.2107 231.53 25 231 25H229ZM236 25C235.47 25 234.961 25.2107 234.586 25.5858C234.211 25.9609 234 26.4696 234 27V33C234 33.5304 234.211 34.0391 234.586 34.4142C234.961 34.7893 235.47 35 236 35H238C238.53 35 239.039 34.7893 239.414 34.4142C239.789 34.0391 240 33.5304 240 33V27C240 26.4696 239.789 25.9609 239.414 25.5858C239.039 25.2107 238.53 25 238 25H236ZM236 27H238V33H236V27ZM243 25C242.47 25 241.961 25.2107 241.586 25.5858C241.211 25.9609 241 26.4696 241 27V29C241 29.5304 241.211 30.0391 241.586 30.4142C241.961 30.7893 242.47 31 243 31H245V33H241V35H245C245.53 35 246.039 34.7893 246.414 34.4142C246.789 34.0391 247 33.5304 247 33V31C247 30.4696 246.789 29.9609 246.414 29.5858C246.039 29.2107 245.53 29 245 29H243V27H247V25H243Z" fill="#C8C8C8" fill-opacity="0.47"/>
<path d="M341 53C340.47 53 339.961 53.2107 339.586 53.5858C339.211 53.9609 339 54.4696 339 55V61C339 61.5304 339.211 62.0391 339.586 62.4142C339.961 62.7893 340.47 63 341 63H343C343.53 63 344.039 62.7893 344.414 62.4142C344.789 62.0391 345 61.5304 345 61V60H343V61H341V55H343V56H345V55C345 54.4696 344.789 53.9609 344.414 53.5858C344.039 53.2107 343.53 53 343 53H341ZM348 53C347.47 53 346.961 53.2107 346.586 53.5858C346.211 53.9609 346 54.4696 346 55V61C346 61.5304 346.211 62.0391 346.586 62.4142C346.961 62.7893 347.47 63 348 63H350C350.53 63 351.039 62.7893 351.414 62.4142C351.789 62.0391 352 61.5304 352 61V55C352 54.4696 351.789 53.9609 351.414 53.5858C351.039 53.2107 350.53 53 350 53H348ZM348 55H350V61H348V55ZM355 53C354.47 53 353.961 53.2107 353.586 53.5858C353.211 53.9609 353 54.4696 353 55V57C353 57.5304 353.211 58.0391 353.586 58.4142C353.961 58.7893 354.47 59 355 59H357V61H353V63H357C357.53 63 358.039 62.7893 358.414 62.4142C358.789 62.0391 359 61.5304 359 61V59C359 58.4696 358.789 57.9609 358.414 57.5858C358.039 57.2107 357.53 57 357 57H355V55H359V53H355Z" fill="#C8C8C8" fill-opacity="0.47"/>
<path d="M209.662 50.83C209.611 50.738 209.54 50.6578 209.456 50.5948C209.371 50.5317 209.275 50.4872 209.172 50.464C209.069 50.4409 208.962 50.4397 208.859 50.4606C208.756 50.4814 208.658 50.5238 208.572 50.585L208.186 50.86C208.106 50.92 208.015 50.9634 207.918 50.9877C207.821 51.012 207.72 51.0166 207.621 51.0013C207.523 50.9861 207.428 50.9512 207.343 50.8989C207.258 50.8465 207.184 50.7776 207.126 50.6963C207.068 50.6149 207.026 50.5228 207.004 50.4253C206.982 50.3278 206.98 50.2269 206.997 50.1285C207.015 50.0301 207.052 49.9362 207.106 49.8523C207.161 49.7684 207.231 49.6962 207.314 49.64L207.699 49.364C207.957 49.18 208.25 49.0524 208.561 48.9895C208.871 48.9267 209.191 48.9301 209.5 48.9995C209.809 49.0689 210.1 49.2027 210.353 49.3921C210.607 49.5816 210.818 49.8225 210.972 50.099L211.642 51.299L213.72 49.219C213.862 49.0824 214.051 49.0069 214.248 49.0087C214.444 49.0105 214.632 49.0895 214.771 49.2286C214.91 49.3677 214.989 49.5559 214.991 49.7525C214.992 49.9492 214.917 50.1386 214.78 50.28L212.4 52.66L213.286 54.246C213.339 54.3415 213.413 54.4241 213.501 54.4882C213.59 54.5522 213.692 54.5961 213.799 54.6168C213.906 54.6374 214.017 54.6344 214.123 54.6078C214.229 54.5813 214.328 54.5318 214.413 54.463L214.777 54.168C214.853 54.1048 214.941 54.0574 215.036 54.0284C215.131 53.9995 215.23 53.9896 215.329 53.9993C215.428 54.009 215.523 54.0382 215.611 54.0851C215.698 54.132 215.775 54.1958 215.837 54.2727C215.9 54.3495 215.946 54.438 215.975 54.533C216.003 54.628 216.012 54.7277 216.001 54.8262C215.99 54.9247 215.96 55.0201 215.913 55.1069C215.865 55.1937 215.8 55.2702 215.723 55.332L215.358 55.628C215.103 55.8347 214.806 55.9831 214.488 56.0629C214.17 56.1427 213.838 56.1519 213.515 56.0899C213.193 56.0279 212.888 55.8961 212.623 55.7039C212.357 55.5116 212.136 55.2635 211.976 54.977L211.298 53.763L209.28 55.78C209.138 55.9125 208.95 55.9846 208.755 55.9812C208.561 55.9777 208.376 55.899 208.238 55.7616C208.101 55.6242 208.022 55.4388 208.019 55.2445C208.015 55.0502 208.088 54.8622 208.22 54.72L210.538 52.4L209.662 50.83V50.83ZM202.348 59.892C200.896 60.176 199.255 60.238 197.672 60.248C197.329 61.498 197.434 62.407 197.739 63.036C198.079 63.739 198.732 64.219 199.611 64.439C201.409 64.887 203.978 64.176 205.686 62.227C205.751 62.1529 205.83 62.0924 205.918 62.0488C206.007 62.0052 206.103 61.9795 206.201 61.973C206.299 61.9666 206.398 61.9795 206.491 62.0112C206.584 62.0428 206.67 62.0926 206.745 62.1575C206.819 62.2224 206.879 62.3013 206.923 62.3897C206.966 62.478 206.992 62.5741 206.998 62.6724C207.005 62.7706 206.992 62.8692 206.96 62.9625C206.929 63.0558 206.879 63.1419 206.814 63.216C204.772 65.546 201.644 66.492 199.248 65.894C198.031 65.59 196.962 64.872 196.388 63.69C195.819 62.515 195.803 61.011 196.411 59.254C197.235 56.878 198.483 55.402 199.729 54.488C200.657 53.809 201.722 53.3405 202.849 53.115C204.405 52.797 205.756 53.24 206.5 54.217C207.254 55.206 207.24 56.563 206.405 57.704C205.481 58.966 203.957 59.578 202.348 59.892V59.892ZM203.15 54.585C202.234 54.7671 201.37 55.147 200.616 55.698C199.793 56.302 198.919 57.244 198.23 58.742C199.592 58.72 200.908 58.645 202.061 58.42C203.539 58.132 204.605 57.624 205.195 56.818C205.684 56.151 205.613 55.528 205.307 55.126C204.991 54.711 204.281 54.353 203.15 54.585Z" fill="#C8C8C8" fill-opacity="0.47"/>
<path d="M334.662 5.83C334.611 5.73797 334.54 5.65781 334.456 5.59475C334.371 5.5317 334.275 5.48716 334.172 5.46404C334.069 5.44092 333.962 5.43975 333.859 5.46059C333.756 5.48143 333.658 5.52382 333.572 5.585L333.186 5.86C333.106 5.92 333.015 5.96341 332.918 5.98768C332.821 6.01196 332.72 6.01661 332.621 6.00135C332.523 5.98609 332.428 5.95125 332.343 5.89885C332.258 5.84646 332.184 5.77758 332.126 5.69625C332.068 5.61493 332.026 5.52281 332.004 5.42531C331.982 5.3278 331.98 5.22688 331.997 5.12847C332.015 5.03007 332.052 4.93616 332.106 4.85228C332.161 4.76839 332.231 4.69622 332.314 4.64L332.699 4.364C332.957 4.17995 333.25 4.05235 333.561 3.98954C333.871 3.92673 334.191 3.93012 334.5 3.9995C334.809 4.06887 335.1 4.20266 335.353 4.39213C335.607 4.5816 335.818 4.82247 335.972 5.099L336.642 6.299L338.72 4.219C338.862 4.08244 339.051 4.00694 339.248 4.00874C339.444 4.01054 339.632 4.0895 339.771 4.22863C339.91 4.36775 339.989 4.5559 339.991 4.75254C339.992 4.94919 339.917 5.13861 339.78 5.28L337.4 7.66L338.286 9.246C338.339 9.34146 338.413 9.42411 338.501 9.48816C338.59 9.5522 338.692 9.5961 338.799 9.61678C338.906 9.63745 339.017 9.6344 339.123 9.60783C339.229 9.58127 339.328 9.53184 339.413 9.463L339.777 9.168C339.853 9.10482 339.941 9.05738 340.036 9.02842C340.131 8.99947 340.23 8.98957 340.329 8.9993C340.428 9.00903 340.523 9.0382 340.611 9.08512C340.698 9.13203 340.775 9.19577 340.837 9.27265C340.9 9.34953 340.946 9.43803 340.975 9.53303C341.003 9.62804 341.012 9.72766 341.001 9.82616C340.99 9.92466 340.96 10.0201 340.913 10.1069C340.865 10.1937 340.8 10.2702 340.723 10.332L340.358 10.628C340.103 10.8347 339.806 10.9831 339.488 11.0629C339.17 11.1427 338.838 11.1519 338.515 11.0899C338.193 11.0279 337.888 10.8961 337.623 10.7039C337.357 10.5116 337.136 10.2635 336.976 9.977L336.298 8.763L334.28 10.78C334.138 10.9125 333.95 10.9846 333.755 10.9812C333.561 10.9777 333.376 10.899 333.238 10.7616C333.101 10.6242 333.022 10.4388 333.019 10.2445C333.015 10.0502 333.088 9.86217 333.22 9.72L335.538 7.4L334.662 5.83V5.83ZM327.348 14.892C325.896 15.176 324.255 15.238 322.672 15.248C322.329 16.498 322.434 17.407 322.739 18.036C323.079 18.739 323.732 19.219 324.611 19.439C326.409 19.887 328.978 19.176 330.686 17.227C330.751 17.1529 330.83 17.0924 330.918 17.0488C331.007 17.0052 331.103 16.9795 331.201 16.973C331.299 16.9666 331.398 16.9795 331.491 17.0112C331.584 17.0428 331.67 17.0926 331.745 17.1575C331.819 17.2224 331.879 17.3013 331.923 17.3897C331.966 17.478 331.992 17.5741 331.998 17.6724C332.005 17.7706 331.992 17.8692 331.96 17.9625C331.929 18.0558 331.879 18.1419 331.814 18.216C329.772 20.546 326.644 21.492 324.248 20.894C323.031 20.59 321.962 19.872 321.388 18.69C320.819 17.515 320.803 16.011 321.411 14.254C322.235 11.878 323.483 10.402 324.729 9.488C325.657 8.80904 326.722 8.3405 327.849 8.115C329.405 7.797 330.756 8.24 331.5 9.217C332.254 10.206 332.24 11.563 331.405 12.704C330.481 13.966 328.957 14.578 327.348 14.892V14.892ZM328.15 9.585C327.234 9.76711 326.37 10.147 325.616 10.698C324.793 11.302 323.919 12.244 323.23 13.742C324.592 13.72 325.908 13.645 327.061 13.42C328.539 13.132 329.605 12.624 330.195 11.818C330.684 11.151 330.613 10.528 330.307 10.126C329.991 9.711 329.281 9.353 328.15 9.585Z" fill="#C8C8C8" fill-opacity="0.47"/>
<path d="M18 136V138H20V146H22V138H24V136H18ZM27 136C26.4696 136 25.9609 136.211 25.5858 136.586C25.2107 136.961 25 137.47 25 138V146H27V142H29V146H31V138C31 137.47 30.7893 136.961 30.4142 136.586C30.0391 136.211 29.5304 136 29 136H27ZM27 138H29V140H27V138ZM32 136V146H34V141L36 146H38V136H36V141L34 136H32Z" fill="#C8C8C8" fill-opacity="0.47"/>
<path d="M70 94C69.4696 94 68.9609 94.2107 68.5858 94.5858C68.2107 94.9609 68 95.4696 68 96V98C68 98.5304 68.2107 99.0391 68.5858 99.4142C68.9609 99.7893 69.4696 100 70 100H72V102H68V104H72C72.5304 104 73.0391 103.789 73.4142 103.414C73.7893 103.039 74 102.53 74 102V100C74 99.4696 73.7893 98.9609 73.4142 98.5858C73.0391 98.2107 72.5304 98 72 98H70V96H74V94H70ZM80 94V96H79V102H80V104H76V102H77V96H76V94H80ZM82 94V104H84V99L86 104H88V94H86V99L84 94H82Z" fill="#C8C8C8" fill-opacity="0.47"/>
<path d="M213 154C212.47 154 211.961 154.211 211.586 154.586C211.211 154.961 211 155.47 211 156V158C211 158.53 211.211 159.039 211.586 159.414C211.961 159.789 212.47 160 213 160H215V162H211V164H215C215.53 164 216.039 163.789 216.414 163.414C216.789 163.039 217 162.53 217 162V160C217 159.47 216.789 158.961 216.414 158.586C216.039 158.211 215.53 158 215 158H213V156H217V154H213ZM223 154V156H222V162H223V164H219V162H220V156H219V154H223ZM225 154V164H227V159L229 164H231V154H229V159L227 154H225Z" fill="#C8C8C8" fill-opacity="0.47"/>
<path d="M158 19C156.9 19 156 19.9 156 21V27C156 28.1 156.9 29 158 29H160C161.1 29 162 28.1 162 27V23H160V27H158V21H162V19H158ZM142 19V29H148V27H144V19H142ZM151 19C149.9 19 149 19.9 149 21V27C149 28.1 149.9 29 151 29H153C154.1 29 155 28.1 155 27V21C155 19.9 154.1 19 153 19H151ZM151 21H153V27H151V21Z" fill="#C8C8C8" fill-opacity="0.47"/>
<path d="M291 130C289.9 130 289 130.9 289 132V138C289 139.1 289.9 140 291 140H293C294.1 140 295 139.1 295 138V134H293V138H291V132H295V130H291ZM275 130V140H281V138H277V130H275ZM284 130C282.9 130 282 130.9 282 132V138C282 139.1 282.9 140 284 140H286C287.1 140 288 139.1 288 138V132C288 130.9 287.1 130 286 130H284ZM284 132H286V138H284V132Z" fill="#C8C8C8" fill-opacity="0.47"/>
<path d="M135.814 126.301C134.623 125.359 132.863 126.13 132.749 127.644L132.592 129.747H135.75C135.949 129.747 136.14 129.826 136.28 129.967C136.421 130.107 136.5 130.298 136.5 130.497C136.5 130.696 136.421 130.887 136.28 131.027C136.14 131.168 135.949 131.247 135.75 131.247H132.478L131.614 142.732C131.398 145.606 127.926 146.92 125.862 144.91L125.476 144.535C125.334 144.396 125.252 144.206 125.25 144.007C125.247 143.808 125.324 143.616 125.463 143.474C125.601 143.331 125.791 143.25 125.99 143.247C126.189 143.245 126.381 143.321 126.523 143.46L126.908 143.835C128.06 144.957 129.998 144.223 130.119 142.62L130.974 131.247H129C128.801 131.247 128.61 131.168 128.47 131.027C128.329 130.887 128.25 130.696 128.25 130.497C128.25 130.298 128.329 130.107 128.47 129.967C128.61 129.826 128.801 129.747 129 129.747H131.087L131.254 127.532C131.458 124.819 134.611 123.436 136.745 125.125L137.341 125.597C137.42 125.658 137.487 125.733 137.537 125.82C137.587 125.906 137.619 126.002 137.632 126.101C137.645 126.2 137.637 126.3 137.61 126.397C137.584 126.493 137.538 126.583 137.476 126.661C137.414 126.739 137.337 126.804 137.249 126.852C137.162 126.901 137.065 126.931 136.966 126.941C136.867 126.951 136.766 126.942 136.671 126.913C136.575 126.884 136.486 126.836 136.409 126.772L135.814 126.301V126.301ZM135.154 135.204C135.252 135.118 135.369 135.056 135.495 135.024C135.622 134.991 135.754 134.989 135.882 135.016C136.009 135.044 136.129 135.101 136.23 135.183C136.332 135.265 136.412 135.37 136.466 135.489L137.863 138.573L133.72 142.717C133.583 142.858 133.508 143.048 133.509 143.244C133.511 143.441 133.59 143.629 133.729 143.768C133.868 143.907 134.056 143.986 134.253 143.988C134.449 143.989 134.639 143.914 134.78 143.777L138.524 140.033L139.705 142.641C140.383 144.139 142.356 144.486 143.505 143.309L143.786 143.021C143.858 142.952 143.916 142.868 143.955 142.776C143.995 142.683 144.015 142.584 144.015 142.484C144.016 142.383 143.996 142.284 143.957 142.192C143.918 142.099 143.861 142.015 143.79 141.945C143.718 141.875 143.633 141.82 143.539 141.783C143.446 141.747 143.346 141.729 143.246 141.732C143.145 141.734 143.047 141.757 142.955 141.799C142.864 141.84 142.782 141.9 142.714 141.973L142.432 142.261C142.337 142.359 142.219 142.432 142.09 142.473C141.96 142.515 141.822 142.524 141.688 142.501C141.554 142.477 141.428 142.421 141.32 142.338C141.213 142.254 141.127 142.146 141.071 142.021L139.657 138.9L143.78 134.777C143.917 134.636 143.992 134.446 143.991 134.25C143.989 134.053 143.91 133.865 143.771 133.726C143.632 133.587 143.444 133.508 143.247 133.506C143.051 133.505 142.861 133.58 142.72 133.717L138.997 137.44L137.833 134.869C137.682 134.537 137.457 134.245 137.173 134.016C136.89 133.787 136.557 133.627 136.2 133.55C135.844 133.472 135.475 133.479 135.122 133.57C134.769 133.661 134.442 133.833 134.167 134.073L133.756 134.432C133.607 134.563 133.515 134.748 133.501 134.947C133.488 135.145 133.554 135.341 133.685 135.491C133.816 135.641 134.001 135.732 134.199 135.746C134.398 135.759 134.594 135.693 134.743 135.562L135.154 135.203L135.154 135.204Z" fill="#C8C8C8" fill-opacity="0.47"/>
<path d="M389.814 3.30149C388.623 2.35874 386.863 3.13049 386.749 4.64399L386.592 6.74699H389.75C389.949 6.74699 390.14 6.82601 390.28 6.96666C390.421 7.10731 390.5 7.29808 390.5 7.49699C390.5 7.6959 390.421 7.88667 390.28 8.02732C390.14 8.16797 389.949 8.24699 389.75 8.24699H386.478L385.614 19.7325C385.398 22.6065 381.926 23.9205 379.862 21.9097L379.476 21.5347C379.334 21.3959 379.252 21.2061 379.25 21.0072C379.247 20.8082 379.324 20.6164 379.463 20.4739C379.601 20.3313 379.791 20.2498 379.99 20.2472C380.189 20.2446 380.381 20.3212 380.523 20.46L380.908 20.835C382.06 21.957 383.998 21.2235 384.119 19.62L384.974 8.24699H383C382.801 8.24699 382.61 8.16797 382.47 8.02732C382.329 7.88667 382.25 7.6959 382.25 7.49699C382.25 7.29808 382.329 7.10731 382.47 6.96666C382.61 6.82601 382.801 6.74699 383 6.74699H385.087L385.254 4.53224C385.458 1.81874 388.611 0.436492 390.745 2.12474L391.341 2.59724C391.42 2.65754 391.487 2.73314 391.537 2.8196C391.587 2.90606 391.619 3.00164 391.632 3.10073C391.645 3.19982 391.637 3.30042 391.61 3.39664C391.584 3.49285 391.538 3.58273 391.476 3.66101C391.414 3.73929 391.337 3.80438 391.249 3.85248C391.162 3.90057 391.065 3.9307 390.966 3.94108C390.867 3.95147 390.766 3.9419 390.671 3.91295C390.575 3.884 390.486 3.83625 390.409 3.77249L389.814 3.30149V3.30149ZM389.154 12.204C389.252 12.1181 389.369 12.0563 389.495 12.0237C389.622 11.9911 389.754 11.9886 389.882 12.0163C390.009 12.044 390.129 12.1012 390.23 12.1832C390.332 12.2653 390.412 12.37 390.466 12.489L391.863 15.573L387.72 19.7167C387.583 19.8582 387.508 20.0476 387.509 20.2443C387.511 20.4409 387.59 20.629 387.729 20.7681C387.868 20.9072 388.056 20.986 388.253 20.9877C388.449 20.9895 388.639 20.9139 388.78 20.7772L392.524 17.0332L393.705 19.641C394.383 21.1387 396.356 21.486 397.505 20.3092L397.786 20.0212C397.858 19.9516 397.916 19.8681 397.955 19.7758C397.995 19.6835 398.015 19.5842 398.015 19.4838C398.016 19.3835 397.996 19.2841 397.957 19.1915C397.918 19.099 397.861 19.0152 397.79 18.945C397.718 18.8749 397.633 18.8199 397.539 18.7833C397.446 18.7466 397.346 18.7291 397.246 18.7318C397.145 18.7344 397.047 18.7572 396.955 18.7987C396.864 18.8402 396.782 18.8997 396.714 18.9735L396.432 19.2615C396.337 19.3589 396.219 19.4316 396.09 19.4733C395.96 19.5151 395.822 19.5245 395.688 19.5008C395.554 19.4772 395.428 19.4212 395.32 19.3376C395.213 19.2541 395.127 19.1456 395.071 19.0215L393.657 15.9L397.78 11.7772C397.917 11.6358 397.992 11.4463 397.991 11.2497C397.989 11.053 397.91 10.8649 397.771 10.7259C397.632 10.5868 397.444 10.5079 397.247 10.5062C397.051 10.5045 396.861 10.5801 396.72 10.7167L392.997 14.4397L391.833 11.8695C391.682 11.5374 391.457 11.2451 391.173 11.0159C390.89 10.7868 390.557 10.6271 390.2 10.5497C389.844 10.4723 389.475 10.4793 389.122 10.5702C388.769 10.661 388.442 10.8332 388.167 11.073L387.756 11.4322C387.607 11.5631 387.515 11.7482 387.501 11.9467C387.488 12.1453 387.554 12.341 387.685 12.4909C387.816 12.6407 388.001 12.7325 388.199 12.7459C388.398 12.7594 388.594 12.6934 388.743 12.5625L389.154 12.2032L389.154 12.204Z" fill="#C8C8C8" fill-opacity="0.47"/>
<path d="M133 55C133 55.5304 132.789 56.0391 132.414 56.4142C132.039 56.7893 131.53 57 131 57C130.47 57 129.961 56.7893 129.586 56.4142C129.211 56.0391 129 55.5304 129 55C129 54.4696 129.211 53.9609 129.586 53.5858C129.961 53.2107 130.47 53 131 53C131.53 53 132.039 53.2107 132.414 53.5858C132.789 53.9609 133 54.4696 133 55V55Z" fill="#C8C8C8" fill-opacity="0.47"/>
<path d="M122 60C122 59.7348 122.105 59.4804 122.293 59.2929C122.48 59.1054 122.735 59 123 59H139C139.265 59 139.52 59.1054 139.707 59.2929C139.895 59.4804 140 59.7348 140 60C140 60.2652 139.895 60.5196 139.707 60.7071C139.52 60.8946 139.265 61 139 61H123C122.735 61 122.48 60.8946 122.293 60.7071C122.105 60.5196 122 60.2652 122 60Z" fill="#C8C8C8" fill-opacity="0.47"/>
<path d="M131 67C131.53 67 132.039 66.7893 132.414 66.4142C132.789 66.0391 133 65.5304 133 65C133 64.4696 132.789 63.9609 132.414 63.5858C132.039 63.2107 131.53 63 131 63C130.47 63 129.961 63.2107 129.586 63.5858C129.211 63.9609 129 64.4696 129 65C129 65.5304 129.211 66.0391 129.586 66.4142C129.961 66.7893 130.47 67 131 67Z" fill="#C8C8C8" fill-opacity="0.47"/>
<path d="M79 33C78.7348 33 78.4804 33.1054 78.2929 33.2929C78.1054 33.4804 78 33.7348 78 34C78 34.2652 78.1054 34.5196 78.2929 34.7071C78.4804 34.8946 78.7348 35 79 35H93C93.2652 35 93.5196 34.8946 93.7071 34.7071C93.8946 34.5196 94 34.2652 94 34C94 33.7348 93.8946 33.4804 93.7071 33.2929C93.5196 33.1054 93.2652 33 93 33H79Z" fill="#C8C8C8" fill-opacity="0.47"/>
<path d="M79 37C78.7348 37 78.4804 37.1054 78.2929 37.2929C78.1054 37.4804 78 37.7348 78 38C78 38.2652 78.1054 38.5196 78.2929 38.7071C78.4804 38.8946 78.7348 39 79 39H93C93.2652 39 93.5196 38.8946 93.7071 38.7071C93.8946 38.5196 94 38.2652 94 38C94 37.7348 93.8946 37.4804 93.7071 37.2929C93.5196 37.1054 93.2652 37 93 37H79Z" fill="#C8C8C8" fill-opacity="0.47"/>
<path d="M254 87C253.735 87 253.48 87.1054 253.293 87.2929C253.105 87.4804 253 87.7348 253 88C253 88.2652 253.105 88.5196 253.293 88.7071C253.48 88.8946 253.735 89 254 89H268C268.265 89 268.52 88.8946 268.707 88.7071C268.895 88.5196 269 88.2652 269 88C269 87.7348 268.895 87.4804 268.707 87.2929C268.52 87.1054 268.265 87 268 87H254Z" fill="#C8C8C8" fill-opacity="0.47"/>
<path d="M254 91C253.735 91 253.48 91.1054 253.293 91.2929C253.105 91.4804 253 91.7348 253 92C253 92.2652 253.105 92.5196 253.293 92.7071C253.48 92.8946 253.735 93 254 93H268C268.265 93 268.52 92.8946 268.707 92.7071C268.895 92.5196 269 92.2652 269 92C269 91.7348 268.895 91.4804 268.707 91.2929C268.52 91.1054 268.265 91 268 91H254Z" fill="#C8C8C8" fill-opacity="0.47"/>
<path d="M36 55C36 54.7348 36.1054 54.4804 36.2929 54.2929C36.4804 54.1054 36.7348 54 37 54H51C51.2652 54 51.5196 54.1054 51.7071 54.2929C51.8946 54.4804 52 54.7348 52 55C52 55.2652 51.8946 55.5196 51.7071 55.7071C51.5196 55.8946 51.2652 56 51 56H37C36.7348 56 36.4804 55.8946 36.2929 55.7071C36.1054 55.5196 36 55.2652 36 55Z" fill="#C8C8C8" fill-opacity="0.47"/>
<path d="M277 19C277 18.7348 277.105 18.4804 277.293 18.2929C277.48 18.1054 277.735 18 278 18H292C292.265 18 292.52 18.1054 292.707 18.2929C292.895 18.4804 293 18.7348 293 19C293 19.2652 292.895 19.5196 292.707 19.7071C292.52 19.8946 292.265 20 292 20H278C277.735 20 277.48 19.8946 277.293 19.7071C277.105 19.5196 277 19.2652 277 19Z" fill="#C8C8C8" fill-opacity="0.47"/>
<path d="M20.243 18.343C20.3352 18.2475 20.4456 18.1713 20.5676 18.1189C20.6896 18.0665 20.8208 18.0389 20.9536 18.0378C21.0864 18.0366 21.2181 18.0619 21.341 18.1122C21.4638 18.1625 21.5755 18.2367 21.6694 18.3306C21.7633 18.4245 21.8375 18.5362 21.8878 18.6591C21.9381 18.782 21.9634 18.9136 21.9622 19.0464C21.9611 19.1792 21.9335 19.3104 21.8811 19.4324C21.8287 19.5544 21.7525 19.6648 21.657 19.757L11.757 29.657C11.5684 29.8392 11.3158 29.94 11.0536 29.9377C10.7914 29.9354 10.5406 29.8302 10.3552 29.6448C10.1698 29.4594 10.0646 29.2086 10.0623 28.9464C10.06 28.6842 10.1608 28.4316 10.343 28.243L20.243 18.343V18.343Z" fill="#C8C8C8" fill-opacity="0.47"/>
<path d="M13.879 21.879C13.5038 22.2542 12.995 22.4649 12.4645 22.4649C11.9339 22.4649 11.4251 22.2542 11.05 21.879C10.6748 21.5039 10.4641 20.9951 10.4641 20.4645C10.4641 19.934 10.6748 19.4252 11.05 19.05C11.4253 18.6747 11.9343 18.4639 12.465 18.4639C12.9957 18.4639 13.5047 18.6747 13.88 19.05C14.2553 19.4253 14.4661 19.9343 14.4661 20.465C14.4661 20.9957 14.2553 21.5047 13.88 21.88L13.879 21.879Z" fill="#C8C8C8" fill-opacity="0.47"/>
<path d="M18.121 28.95C18.4961 29.3251 19.005 29.5359 19.5355 29.5359C20.066 29.5359 20.5749 29.3251 20.95 28.95C21.3251 28.5749 21.5359 28.066 21.5359 27.5355C21.5359 27.005 21.3251 26.4961 20.95 26.121C20.5749 25.7459 20.066 25.5351 19.5355 25.5351C19.005 25.5351 18.4961 25.7459 18.121 26.121C17.7459 26.4961 17.5351 27.005 17.5351 27.5355C17.5351 28.066 17.7459 28.5749 18.121 28.95V28.95Z" fill="#C8C8C8" fill-opacity="0.47"/>
<path d="M306.243 54.343C306.335 54.2475 306.446 54.1713 306.568 54.1189C306.69 54.0665 306.821 54.0389 306.954 54.0378C307.086 54.0366 307.218 54.0619 307.341 54.1122C307.464 54.1625 307.576 54.2367 307.669 54.3306C307.763 54.4245 307.838 54.5362 307.888 54.6591C307.938 54.782 307.963 54.9136 307.962 55.0464C307.961 55.1792 307.934 55.3104 307.881 55.4324C307.829 55.5544 307.753 55.6648 307.657 55.757L297.757 65.657C297.568 65.8392 297.316 65.94 297.054 65.9377C296.791 65.9354 296.541 65.8302 296.355 65.6448C296.17 65.4594 296.065 65.2086 296.062 64.9464C296.06 64.6842 296.161 64.4316 296.343 64.243L306.243 54.343V54.343Z" fill="#C8C8C8" fill-opacity="0.47"/>
<path d="M299.879 57.879C299.504 58.2542 298.995 58.4649 298.465 58.4649C297.934 58.4649 297.425 58.2542 297.05 57.879C296.675 57.5039 296.464 56.9951 296.464 56.4645C296.464 55.934 296.675 55.4252 297.05 55.05C297.425 54.6747 297.934 54.4639 298.465 54.4639C298.996 54.4639 299.505 54.6747 299.88 55.05C300.255 55.4253 300.466 55.9343 300.466 56.465C300.466 56.9957 300.255 57.5047 299.88 57.88L299.879 57.879Z" fill="#C8C8C8" fill-opacity="0.47"/>
<path d="M304.121 64.95C304.496 65.3251 305.005 65.5359 305.535 65.5359C306.066 65.5359 306.575 65.3251 306.95 64.95C307.325 64.5749 307.536 64.066 307.536 63.5355C307.536 63.005 307.325 62.4961 306.95 62.121C306.575 61.7459 306.066 61.5351 305.535 61.5351C305.005 61.5351 304.496 61.7459 304.121 62.121C303.746 62.4961 303.535 63.005 303.535 63.5355C303.535 64.066 303.746 64.5749 304.121 64.95V64.95Z" fill="#C8C8C8" fill-opacity="0.47"/>
<path d="M12 79C11.7348 79 11.4804 79.1054 11.2929 79.2929C11.1054 79.4804 11 79.7348 11 80V86H5C4.73478 86 4.48043 86.1054 4.29289 86.2929C4.10536 86.4804 4 86.7348 4 87C4 87.2652 4.10536 87.5196 4.29289 87.7071C4.48043 87.8946 4.73478 88 5 88H11V94C11 94.2652 11.1054 94.5196 11.2929 94.7071C11.4804 94.8946 11.7348 95 12 95C12.2652 95 12.5196 94.8946 12.7071 94.7071C12.8946 94.5196 13 94.2652 13 94V88H19C19.2652 88 19.5196 87.8946 19.7071 87.7071C19.8946 87.5196 20 87.2652 20 87C20 86.7348 19.8946 86.4804 19.7071 86.2929C19.5196 86.1054 19.2652 86 19 86H13V80C13 79.7348 12.8946 79.4804 12.7071 79.2929C12.5196 79.1054 12.2652 79 12 79V79Z" fill="#C8C8C8" fill-opacity="0.47"/>
<path d="M353 127C352.735 127 352.48 127.105 352.293 127.293C352.105 127.48 352 127.735 352 128V134H346C345.735 134 345.48 134.105 345.293 134.293C345.105 134.48 345 134.735 345 135C345 135.265 345.105 135.52 345.293 135.707C345.48 135.895 345.735 136 346 136H352V142C352 142.265 352.105 142.52 352.293 142.707C352.48 142.895 352.735 143 353 143C353.265 143 353.52 142.895 353.707 142.707C353.895 142.52 354 142.265 354 142V136H360C360.265 136 360.52 135.895 360.707 135.707C360.895 135.52 361 135.265 361 135C361 134.735 360.895 134.48 360.707 134.293C360.52 134.105 360.265 134 360 134H354V128C354 127.735 353.895 127.48 353.707 127.293C353.52 127.105 353.265 127 353 127V127Z" fill="#C8C8C8" fill-opacity="0.47"/>
<path d="M381 100L377 104M377 100L381 104L377 100Z" stroke="#C8C8C8" stroke-opacity="0.47" stroke-width="2" stroke-linecap="round" stroke-linejoin="round"/>
<path d="M381 92H374L370 106L367 100H365" stroke="#C8C8C8" stroke-opacity="0.47" stroke-width="2" stroke-linecap="round" stroke-linejoin="round"/>
</svg>
