<svg width="130" height="227" viewBox="0 0 130 227" fill="none" xmlns="http://www.w3.org/2000/svg">
<rect width="130" height="227" fill="white"/>
<rect width="130" height="227" fill="black" fill-opacity="0.2"/>
<path d="M62 109.75C62 110.347 61.7629 110.919 61.341 111.341C60.919 111.763 60.3467 112 59.75 112C59.1533 112 58.581 111.763 58.159 111.341C57.7371 110.919 57.5 110.347 57.5 109.75C57.5 109.153 57.7371 108.581 58.159 108.159C58.581 107.737 59.1533 107.5 59.75 107.5C60.3467 107.5 60.919 107.737 61.341 108.159C61.7629 108.581 62 109.153 62 109.75V109.75Z" fill="#9A9A9A"/>
<path d="M56 103C55.2044 103 54.4413 103.316 53.8787 103.879C53.3161 104.441 53 105.204 53 106V121C53 121.796 53.3161 122.559 53.8787 123.121C54.4413 123.684 55.2044 124 56 124H74C74.7956 124 75.5587 123.684 76.1213 123.121C76.6839 122.559 77 121.796 77 121V106C77 105.204 76.6839 104.441 76.1213 103.879C75.5587 103.316 74.7956 103 74 103H56V103ZM74 104.5C74.3978 104.5 74.7794 104.658 75.0607 104.939C75.342 105.221 75.5 105.602 75.5 106V115.75L69.8345 112.829C69.6938 112.759 69.5346 112.735 69.3792 112.76C69.2239 112.785 69.0804 112.858 68.969 112.969L63.404 118.534L59.414 115.876C59.2699 115.78 59.0971 115.737 58.9249 115.754C58.7527 115.771 58.5916 115.847 58.469 115.969L54.5 119.5V106C54.5 105.602 54.658 105.221 54.9393 104.939C55.2206 104.658 55.6022 104.5 56 104.5H74Z" fill="#9A9A9A"/>
</svg>
