<svg width="222" height="128" viewBox="0 0 222 128" fill="none" xmlns="http://www.w3.org/2000/svg">
<rect width="222" height="128" fill="white"/>
<rect width="222" height="128" fill="black" fill-opacity="0.2"/>
<path d="M108 60.25C108 60.8467 107.763 61.419 107.341 61.841C106.919 62.2629 106.347 62.5 105.75 62.5C105.153 62.5 104.581 62.2629 104.159 61.841C103.737 61.419 103.5 60.8467 103.5 60.25C103.5 59.6533 103.737 59.081 104.159 58.659C104.581 58.2371 105.153 58 105.75 58C106.347 58 106.919 58.2371 107.341 58.659C107.763 59.081 108 59.6533 108 60.25Z" fill="#9A9A9A"/>
<path d="M102 53.5C101.204 53.5 100.441 53.8161 99.8787 54.3787C99.3161 54.9413 99 55.7044 99 56.5V71.5C99 72.2956 99.3161 73.0587 99.8787 73.6213C100.441 74.1839 101.204 74.5 102 74.5H120C120.796 74.5 121.559 74.1839 122.121 73.6213C122.684 73.0587 123 72.2956 123 71.5V56.5C123 55.7044 122.684 54.9413 122.121 54.3787C121.559 53.8161 120.796 53.5 120 53.5H102ZM120 55C120.398 55 120.779 55.158 121.061 55.4393C121.342 55.7206 121.5 56.1022 121.5 56.5V66.25L115.835 63.3295C115.694 63.259 115.535 63.2346 115.379 63.2596C115.224 63.2847 115.08 63.3579 114.969 63.469L109.404 69.034L105.414 66.376C105.27 66.2801 105.097 66.237 104.925 66.2539C104.753 66.2709 104.592 66.3468 104.469 66.469L100.5 70V56.5C100.5 56.1022 100.658 55.7206 100.939 55.4393C101.221 55.158 101.602 55 102 55H120Z" fill="#9A9A9A"/>
</svg>
