<svg width="24" height="24" viewBox="0 0 24 24" fill="none" xmlns="http://www.w3.org/2000/svg">
<path d="M12.0026 0.0494995C5.39476 0.0494995 0.0375061 5.4075 0.0375061 12.0146C0.0375061 18.6248 5.39476 23.9813 12.0026 23.9813C18.612 23.9813 23.9693 18.6248 23.9693 12.0146C23.9693 5.4075 18.612 0.0494995 12.0026 0.0494995ZM12.0026 16.0343C9.95513 16.0343 8.29276 14.3726 8.29276 12.3229C8.29276 10.2746 9.95513 8.6145 12.0026 8.6145C14.0516 8.6145 15.714 10.2746 15.714 12.3229C15.7144 14.3726 14.0516 16.0343 12.0026 16.0343Z" fill="#C4C4C4"/>
<path d="M12.0038 9.17062C10.2649 9.17062 8.83838 10.5982 8.83838 12.3367C8.83838 14.0756 10.2653 15.5021 12.0038 15.5021C13.7426 15.5021 15.1691 14.0752 15.1691 12.3367C15.1691 10.5979 13.7423 9.17062 12.0038 9.17062ZM12.0038 10.7797C12.2087 10.7782 12.4119 10.8173 12.6015 10.895C12.7911 10.9727 12.9634 11.0873 13.1083 11.2322C13.2532 11.3771 13.3678 11.5494 13.4455 11.739C13.5232 11.9287 13.5624 12.1318 13.5608 12.3367C13.5623 12.5416 13.5231 12.7447 13.4454 12.9343C13.3677 13.1239 13.253 13.2961 13.1081 13.4409C12.9632 13.5857 12.791 13.7003 12.6014 13.7779C12.4118 13.8555 12.2086 13.8946 12.0038 13.893C11.7989 13.8946 11.5958 13.8555 11.4063 13.7779C11.2167 13.7003 11.0445 13.5857 10.8996 13.4409C10.7548 13.296 10.6402 13.1238 10.5626 12.9342C10.485 12.7447 10.4459 12.5416 10.4475 12.3367C10.4459 12.1319 10.485 11.9287 10.5626 11.7391C10.6402 11.5495 10.7548 11.3773 10.8996 11.2324C11.0444 11.0875 11.2166 10.9728 11.4062 10.8951C11.5958 10.8174 11.7989 10.7782 12.0038 10.7797Z" fill="#C4C4C4"/>
</svg>
