<svg width="80" height="80" viewBox="0 0 80 80" fill="none" xmlns="http://www.w3.org/2000/svg">
<rect width="80" height="80" fill="white"/>
<rect width="80" height="80" fill="black" fill-opacity="0.2"/>
<path d="M38 37.5C38 37.8978 37.842 38.2794 37.5607 38.5607C37.2794 38.842 36.8978 39 36.5 39C36.1022 39 35.7206 38.842 35.4393 38.5607C35.158 38.2794 35 37.8978 35 37.5C35 37.1022 35.158 36.7206 35.4393 36.4393C35.7206 36.158 36.1022 36 36.5 36C36.8978 36 37.2794 36.158 37.5607 36.4393C37.842 36.7206 38 37.1022 38 37.5V37.5Z" fill="#9A9A9A"/>
<path d="M34 33C33.4696 33 32.9609 33.2107 32.5858 33.5858C32.2107 33.9609 32 34.4696 32 35V45C32 45.5304 32.2107 46.0391 32.5858 46.4142C32.9609 46.7893 33.4696 47 34 47H46C46.5304 47 47.0391 46.7893 47.4142 46.4142C47.7893 46.0391 48 45.5304 48 45V35C48 34.4696 47.7893 33.9609 47.4142 33.5858C47.0391 33.2107 46.5304 33 46 33H34V33ZM46 34C46.2652 34 46.5196 34.1054 46.7071 34.2929C46.8946 34.4804 47 34.7348 47 35V41.5L43.223 39.553C43.1292 39.506 43.023 39.4897 42.9195 39.5064C42.8159 39.5231 42.7203 39.5719 42.646 39.646L38.936 43.356L36.276 41.584C36.18 41.5201 36.0648 41.4913 35.9499 41.5026C35.8351 41.5139 35.7277 41.5646 35.646 41.646L33 44V35C33 34.7348 33.1054 34.4804 33.2929 34.2929C33.4804 34.1054 33.7348 34 34 34H46Z" fill="#9A9A9A"/>
</svg>
