<svg width="237" height="80" viewBox="0 0 237 80" fill="none" xmlns="http://www.w3.org/2000/svg">
<rect width="237" height="80" fill="white"/>
<rect width="237" height="80" fill="black" fill-opacity="0.2"/>
<path d="M115.5 36.25C115.5 36.8467 115.263 37.419 114.841 37.841C114.419 38.2629 113.847 38.5 113.25 38.5C112.653 38.5 112.081 38.2629 111.659 37.841C111.237 37.419 111 36.8467 111 36.25C111 35.6533 111.237 35.081 111.659 34.659C112.081 34.2371 112.653 34 113.25 34C113.847 34 114.419 34.2371 114.841 34.659C115.263 35.081 115.5 35.6533 115.5 36.25Z" fill="#9A9A9A"/>
<path d="M109.5 29.5C108.704 29.5 107.941 29.8161 107.379 30.3787C106.816 30.9413 106.5 31.7044 106.5 32.5V47.5C106.5 48.2956 106.816 49.0587 107.379 49.6213C107.941 50.1839 108.704 50.5 109.5 50.5H127.5C128.296 50.5 129.059 50.1839 129.621 49.6213C130.184 49.0587 130.5 48.2956 130.5 47.5V32.5C130.5 31.7044 130.184 30.9413 129.621 30.3787C129.059 29.8161 128.296 29.5 127.5 29.5H109.5ZM127.5 31C127.898 31 128.279 31.158 128.561 31.4393C128.842 31.7206 129 32.1022 129 32.5V42.25L123.335 39.3295C123.194 39.259 123.035 39.2346 122.879 39.2596C122.724 39.2847 122.58 39.3579 122.469 39.469L116.904 45.034L112.914 42.376C112.77 42.2801 112.597 42.237 112.425 42.2539C112.253 42.2709 112.092 42.3468 111.969 42.469L108 46V32.5C108 32.1022 108.158 31.7206 108.439 31.4393C108.721 31.158 109.102 31 109.5 31H127.5Z" fill="#9A9A9A"/>
</svg>
